<?xml version="1.0" encoding="utf-8"?>
<!-- Generator: Adobe Illustrator 22.1.0, SVG Export Plug-In . SVG Version: 6.00 Build 0)  -->
<svg version="1.1" id="Layer_1" xmlns="http://www.w3.org/2000/svg" xmlns:xlink="http://www.w3.org/1999/xlink" x="0px" y="0px"
	 viewBox="0 0 800 600" style="enable-background:new 0 0 800 600;" xml:space="preserve">
<style type="text/css">
	.st0{fill:#DB3216;}
	.st1{fill:#F1F2F2;}
	.st2{fill:none;stroke:#ED1C24;stroke-miterlimit:10;}
</style>
<g>
	<g>
		<path d="M435.8,118.2c38.2-32,76.3-64,114.5-96.1c5.3-4.5,10.7-9,16-13.4c1.9-1.6-0.8-4.2-2.7-2.7c-38.2,32-76.3,64-114.5,96.1
			c-5.3,4.5-10.7,9-16,13.4C431.3,117.1,433.9,119.8,435.8,118.2L435.8,118.2z"/>
	</g>
</g>
<g>
	<g>
		<path d="M435.9,116.4c-13.2-32.1-26.4-64.1-39.6-96.2c-1.9-4.5-3.7-9-5.6-13.5c-0.9-2.2-4.5-1.2-3.6,1
			c13.2,32.1,26.4,64.1,39.6,96.2c1.9,4.5,3.7,9,5.6,13.5C433.2,119.6,436.8,118.6,435.9,116.4L435.9,116.4z"/>
	</g>
</g>
<path class="st0" d="M642,480.1H99.7c-6.6,0-12-5.4-12-12V129.9c0-6.6,5.4-12,12-12H642c6.6,0,12,5.4,12,12v338.2
	C654,474.7,648.6,480.1,642,480.1z"/>
<path d="M565.9,464.1H111.2c-5.5,0-10-4.5-10-10V144.4c0-5.5,4.5-10,10-10h454.6c5.5,0,10,4.5,10,10v309.7
	C575.9,459.6,571.4,464.1,565.9,464.1z"/>
<circle cx="614.3" cy="227.3" r="23.2"/>
<path class="st1" d="M627.1,217.6l-14.9,25.7c-0.9,1.5-2.9,2.1-4.4,1.2l-5.1-3c-1.5-0.9-2.1-2.9-1.2-4.4l14.9-25.7
	c0.9-1.5,2.9-2.1,4.4-1.2l5.1,3C627.5,214,628,216,627.1,217.6z"/>
<circle cx="614.3" cy="166.8" r="23.2"/>
<path class="st2" d="M621.6,0"/>
<circle cx="388.9" cy="7.3" r="3.6"/>
<circle cx="564.9" cy="7.3" r="3.6"/>
<path class="st1" d="M479.6,451.5H199c-44,0-80-36-80-80V227.4c0-44,36-80,80-80h280.7c44,0,80,36,80,80v144.1
	C559.6,415.5,523.6,451.5,479.6,451.5z"/>
<path class="st1" d="M620.5,151.9v29.7c0,1.8-1.5,3.2-3.2,3.2h-5.9c-1.8,0-3.2-1.5-3.2-3.2v-29.7c0-1.8,1.5-3.2,3.2-3.2h5.9
	C619.1,148.7,620.5,150.2,620.5,151.9z"/>
<path d="M417.1,117.9c0-10.2,8.3-18.5,18.5-18.5s18.5,8.3,18.5,18.5H417.1z"/>
<circle cx="614.3" cy="287.8" r="23.2"/>
<path class="st1" d="M601.5,278.1l28.8,7.5c1.7,0.5,2.8,2.2,2.3,4l-1.5,5.7c-0.5,1.7-2.2,2.8-4,2.3l-28.8-7.5
	c-1.7-0.5-2.8-2.2-2.3-4l1.5-5.7C598,278.6,599.8,277.6,601.5,278.1z"/>
<g>
	<g>
		<path d="M584.6,390.8c20,0,40,0,60.1,0c2.4,0,2.4-3.8,0-3.8c-20,0-40,0-60.1,0C582.1,387.1,582.1,390.8,584.6,390.8L584.6,390.8z"
			/>
	</g>
</g>
<g>
	<g>
		<path d="M584.6,406.5c20,0,40,0,60.1,0c2.4,0,2.4-3.8,0-3.8c-20,0-40,0-60.1,0C582.1,402.7,582.1,406.5,584.6,406.5L584.6,406.5z"
			/>
	</g>
</g>
<g>
	<g>
		<path d="M584.6,422.1c20,0,40,0,60.1,0c2.4,0,2.4-3.8,0-3.8c-20,0-40,0-60.1,0C582.1,418.4,582.1,422.1,584.6,422.1L584.6,422.1z"
			/>
	</g>
</g>
<g>
	<g>
		<path d="M584.6,437.7c20,0,40,0,60.1,0c2.4,0,2.4-3.8,0-3.8c-20,0-40,0-60.1,0C582.1,434,582.1,437.7,584.6,437.7L584.6,437.7z"/>
	</g>
</g>
<g>
	<g>
		<path d="M584.6,453.4c20,0,40,0,60.1,0c2.4,0,2.4-3.8,0-3.8c-20,0-40,0-60.1,0C582.1,449.6,582.1,453.4,584.6,453.4L584.6,453.4z"
			/>
	</g>
</g>
<g>
	<path class="st0" d="M333.2,204.4c-3.2,0-8.1-0.2-14.9-0.7c-6.5-0.4-11.5-0.7-14.9-0.6c0.2,4.7,0.7,12.9,1.7,24.9
		c0.9,10.5,1.3,18.9,1.3,25c0,1.4,0.1,3.5,0.4,6.2c0.3,2.7,0.4,4.8,0.4,6.2c0,3.1-0.7,5.8-2,8.3c-1.7,3.1-4.1,4.7-7.2,4.7
		c-2.2,0-4.2-0.7-5.9-2.1c-1.9-1.6-2.9-3.6-2.9-6c0-0.6,0.1-1.4,0.3-2.6c0.2-1.2,0.3-2.1,0.3-2.7c0-1.9-0.1-4.7-0.4-8.5
		c-0.3-3.8-0.4-6.7-0.4-8.6c0-5.5-0.4-12.9-1.3-22.2c-1-10.7-1.6-18.1-1.7-22.2h-3.2c-9.1,0-16.3-0.7-21.7-2c-4.5-1.1-6.8-3.8-6.8-8
		c0-2.1,0.7-4,2.2-5.6c1.7-2,4-2.9,6.7-2.7c1.4,0.1,4.7,0.4,9.7,1c4,0.4,7.3,0.7,9.8,0.7c2.5,0,6.2,0,11.2-0.1
		c5-0.1,8.7-0.1,11.2-0.1c3.1,0,7.8,0.2,14,0.6c6.2,0.4,10.9,0.6,14,0.6c2.4,0,4.5,0.8,6.2,2.4c1.7,1.6,2.5,3.6,2.5,5.9
		c0,2.3-0.8,4.3-2.5,5.9C337.7,203.6,335.7,204.4,333.2,204.4z"/>
	<path class="st0" d="M379.9,252.1c6.2-15.5,10.9-27.9,14.3-37c1.8-4.9,3.6-9.7,5.3-14.6c2.4-5.8,5-10.3,7.8-13.4
		c1.8-2.1,4-3.1,6.6-3.1c2.3,0,4.4,0.8,6.1,2.4c1.8,1.6,2.6,3.6,2.6,5.9c0,1.6-0.6,3.2-1.7,4.8c-2.2,3.2-4.2,7-6.1,11.5
		c-0.1,0.2-1.6,4.2-4.5,12.1c-3.7,9.4-9.1,23.6-16.4,42.4c-1.9,4.9-4.2,9.9-6.9,14.8c-1.8,3.2-4.3,4.8-7.7,4.8c-4.2,0-7.2-2-8.9-6
		c-5-11.9-10.5-29-16.6-51.4c-1.7-5.5-3.4-11-5.1-16.5c-2.3-7.7-3.4-13-3.4-16c0-2.4,0.9-4.4,2.7-6c1.7-1.5,3.7-2.2,6-2.2
		c3.9,0,6.7,2,8.2,6.1c0.8,3.6,1.6,7.1,2.4,10.6c1.3,4.4,3.3,11,5.8,19.8C373.9,232.9,376.9,243.2,379.9,252.1z"/>
	<path class="st0" d="M245.6,334.5c-3.2,0-8.1-0.2-14.9-0.7c-6.5-0.4-11.5-0.7-14.9-0.6c0.2,4.7,0.7,12.9,1.7,24.9
		c0.9,10.5,1.3,18.9,1.3,25c0,1.4,0.1,3.4,0.4,6.2c0.3,2.7,0.4,4.8,0.4,6.2c0,3.1-0.7,5.8-2,8.3c-1.7,3.1-4.1,4.7-7.2,4.7
		c-2.2,0-4.2-0.7-5.9-2.1c-1.9-1.6-2.9-3.6-2.9-6c0-0.6,0.1-1.4,0.3-2.6c0.2-1.2,0.3-2.1,0.3-2.7c0-1.9-0.1-4.7-0.4-8.5
		c-0.3-3.8-0.4-6.7-0.4-8.6c0-5.5-0.4-12.9-1.3-22.2c-1-10.7-1.6-18.1-1.7-22.2h-3.2c-9.1,0-16.3-0.7-21.7-2c-4.5-1.1-6.8-3.8-6.8-8
		c0-2.1,0.7-4,2.2-5.6c1.7-2,4-2.9,6.7-2.7c1.4,0.1,4.7,0.4,9.7,1c4,0.5,7.3,0.7,9.8,0.7c2.5,0,6.2,0,11.2-0.1
		c5-0.1,8.7-0.1,11.2-0.1c3.1,0,7.8,0.2,14,0.6c6.2,0.4,10.9,0.6,14,0.6c2.4,0,4.5,0.8,6.2,2.4c1.7,1.6,2.5,3.6,2.5,5.9
		c0,2.3-0.8,4.3-2.5,5.9C250.1,333.7,248.1,334.5,245.6,334.5z"/>
	<path class="st0" d="M279,379.2c0,2.3,0.1,6.1,0.2,11.2c0.1,5.1,0.2,8.9,0.2,11.2c0,2.4-0.8,4.3-2.4,5.8c-1.6,1.5-3.6,2.3-6.1,2.3
		s-4.5-0.8-6.1-2.3c-1.6-1.5-2.4-3.5-2.4-5.8c0-2.3-0.1-6.1-0.2-11.2c-0.1-5.1-0.2-8.9-0.2-11.2c0-3.6,0.2-8.2,0.6-13.7
		c0.4-5.5,0.6-10,0.6-13.7c0-2.4,0.8-4.3,2.4-5.8c1.6-1.5,3.6-2.3,6.1-2.3s4.5,0.8,6.1,2.3c1.6,1.5,2.4,3.5,2.4,5.8
		c0,3.6-0.2,8.2-0.6,13.7C279.2,371,279,375.6,279,379.2z M273.7,334.3c-2.6,0-4.9-0.9-6.8-2.6c-1.9-1.8-2.9-3.9-2.9-6.4
		c0-2.5,1-4.7,2.9-6.4c1.9-1.8,4.2-2.6,6.8-2.6c2.6,0,4.9,0.9,6.8,2.6c1.9,1.8,2.8,3.9,2.8,6.4c0,2.5-0.9,4.7-2.8,6.4
		C278.6,333.4,276.4,334.3,273.7,334.3z"/>
	<path class="st0" d="M338.2,358.6c-0.9,0-1.9,0-3-0.1c-1.2-0.1-2.2-0.1-3-0.1c-1.7,0-3.6,0.2-5.8,0.5c0.7,16.5,1.1,27.3,1.1,32.3
		c0,0.5,0,1.5,0.1,3c0,1.5,0.1,2.6,0.1,3.5c0,9.4-3,14.1-8.9,14.1c-2.2,0-4.2-0.7-5.8-2.1c-1.8-1.5-2.7-3.3-2.7-5.5
		c0-1.5,0.1-3.7,0.2-6.6c0.1-2.9,0.2-5.1,0.2-6.6c0-4.9-0.4-15.5-1.1-31.7c-2.5-0.1-6.4-0.5-11.5-1c-5.1-0.6-7.7-3.2-7.7-7.9
		c0-2.3,0.8-4.2,2.3-5.8c1.6-1.6,3.6-2.4,6-2.4c1.5,0,5,0.2,10.4,0.7c0-1.3-0.1-3.5-0.3-6.5c-0.2-2.6-0.2-4.6-0.2-6.1
		c0-2.3,0.8-4.2,2.5-5.7c1.7-1.5,3.7-2.3,6.1-2.3c6,0,9.1,5.1,9.1,15.2l-0.1,5c2.5-0.4,4.6-0.6,6.2-0.6c4.7,0,7.9,0.3,9.6,0.9
		c3.3,1.1,4.9,3.6,4.9,7.5c0,2.3-0.8,4.3-2.4,5.8C342.6,357.9,340.6,358.6,338.2,358.6z"/>
	<path class="st0" d="M372.9,398.9c0,7.8-2.8,11.6-8.5,11.6c-2.4,0-4.5-0.8-6.1-2.3c-1.6-1.6-2.4-3.6-2.4-6v-84.7
		c0-2.4,0.9-4.3,2.6-5.8c1.6-1.4,3.7-2.1,6.1-2.1c2.4,0,4.4,0.7,5.9,2.2c1.6,1.5,2.3,3.4,2.3,5.7V398.9z"/>
	<path class="st0" d="M419.2,410.7c-9.8,0-17.7-2.3-23.9-7c-6.9-5.1-10.3-12.4-10.3-21.7c0-10.3,2.7-19.1,8.1-26.2
		c6-7.9,14.2-11.9,24.4-11.9c7.1,0,13,1.1,17.7,3.4c6.2,3,9.2,7.7,9.2,14.1c0,4.5-2.5,8.5-7.5,11.9c-2.3,1.6-6.9,3.9-13.8,7
		l-20.6,9.1c2,2.1,4.3,3.7,7.1,4.8c2.8,1.1,6,1.6,9.6,1.6c5.5,0,10.1-1.1,13.9-3.4c3.4-2,6.1-3,8.1-3c4.2,0,6.4,2.1,6.4,6.2
		c0,4.7-3.4,8.5-10.2,11.4C431.7,409.5,425.6,410.7,419.2,410.7z M417.6,358.7c-3.8,0-7,1.3-9.7,3.8c-2.7,2.5-4.9,6.3-6.5,11.4
		c4.6-2,9.2-4,13.8-5.9c5.5-2.5,9.9-4.8,13.2-6.9C425.6,359.5,422,358.7,417.6,358.7z"/>
	<path class="st0" d="M501.6,363.1c-4,0-6.5-1.7-7.3-5.1c-1.6-0.3-3.3-0.4-5-0.4c-9.8,0-14.8,1.3-14.8,4c0,1.6,3,3.7,8.9,6.4
		c8.1,3.7,13.6,6.6,16.4,8.7c5.9,4.3,8.9,9.1,8.9,14.5c0,7-3.3,12.3-9.8,16c-5.3,2.9-11.7,4.3-19.4,4.3c-5.4,0-10.4-0.8-14.9-2.5
		c-6.1-2.3-9.2-5.7-9.2-10.1c0-4.1,2.4-6.1,7.3-6.1c1.9,0,4.6,0.6,8.1,1.8c3.6,1.2,6.3,1.8,8.2,1.8c8.3,0,12.5-1.7,12.5-5
		c0-2.1-2.9-4.4-8.6-6.9c-8.4-3.7-13.8-6.4-16.2-8c-5.8-4-8.6-9-8.6-14.8c0-8.2,4.3-13.7,13-16.6c5.1-1.7,12.9-2.5,23.3-2.5
		c4.1,0,7.1,0.5,9.1,1.6c2.7,1.4,4,4.1,4,7.9C507.5,359.4,505.5,363.1,501.6,363.1z"/>
</g>
<g>
	<path d="M120,570.5c-0.1,1.6-0.8,2.4-2.3,2.4c-1.3,0-2.2-0.7-2.7-2.2l-3.9-10.5l-4.6-11.8c-0.2-0.4-0.3-0.8-0.3-1.2
		c0-0.7,0.3-1.3,0.8-1.8c0.5-0.5,1.1-0.7,1.9-0.7c1,0,1.8,0.5,2.2,1.6l6.5,18c1.3-2.7,2.9-6.7,4.9-11.9c0.5-1.4,1.2-3.3,2.2-5.8
		c0.5-1.1,1.3-1.6,2.3-1.6c0.7,0,1.3,0.2,1.9,0.7c0.5,0.5,0.8,1.1,0.8,1.8c0,0.7-1.4,4.3-4.2,11L120,570.5z"/>
	<path d="M151.1,552c-0.9,0-1.6-0.3-2-1c-0.3-0.4-0.5-1.4-0.7-2.8c-1.3,0.3-3.3,0.9-5.9,1.8c-2.8,1.1-4.2,2.5-4.2,4.1
		c0.5,0.2,1,0.3,1.5,0.4c3.9,0.7,6.9,1.7,8.8,2.9c2.8,1.8,4.2,4.4,4.2,7.8c0,2.8-1.2,4.9-3.6,6.3c-2,1.2-4.5,1.8-7.6,1.8
		c-2.2,0-4.4-0.4-6.4-1.1c-2.6-1-4-2.3-4-4c0-0.7,0.3-1.3,0.8-1.8c0.5-0.5,1.2-0.8,1.8-0.8c0.5,0,1.2,0.4,2.1,1.2
		c0.4,0.4,1.3,0.7,2.8,1c1.1,0.2,2.1,0.3,2.9,0.3c1.4,0,2.7-0.2,3.8-0.5c1.6-0.5,2.4-1.3,2.4-2.4c0-2.3-1.6-3.9-4.9-4.7l-2.7-0.6
		c-2.3-0.5-3.9-1.1-4.9-1.8c-1.4-1-2.1-2.4-2.1-4.4c0-3.6,1.7-6.1,5.1-7.7c1-0.5,2.7-1,4.9-1.7s3.9-1.2,4.9-1.6
		c0.7-0.3,1.5-0.5,2.3-0.5c0.7,0,1.3,0.2,1.8,0.7c0.5,0.5,0.7,1.1,0.7,1.9c0,0.5,0.1,1.2,0.3,2.2c0.2,1,0.3,1.7,0.3,2.2
		c0,0.8-0.2,1.4-0.7,1.9C152.5,551.7,151.9,552,151.1,552z"/>
	<path d="M229,524c-1.8,0-3.2-1.1-4.1-3.2c-0.8-1.8-1.5-2.9-2.2-3.3c-0.6-0.3-2.1-0.5-4.4-0.5c-4.1,0-8.7,3.2-13.7,9.5
		c-6.8,8.5-10.2,16.5-10.2,24.1c0,3.7,1.2,6.8,3.5,9.5c2.4,2.7,5.3,4.1,8.7,4.1c2.9,0,5.9-0.8,8.8-2.3c1.6-0.9,4.2-2.5,7.6-5
		c1.6-1.2,2.8-1.8,3.7-1.8c1.2,0,2.2,0.5,3.1,1.4c0.8,0.9,1.2,2,1.2,3.1c0,1.3-0.5,2.4-1.6,3.4c-7.5,6.7-15.1,10-22.8,10
		c-5.9,0-10.9-2.3-14.9-6.8c-3.9-4.4-5.9-9.6-5.9-15.5c0-9.6,4-19.5,12.1-29.6c6.7-8.4,13.5-12.7,20.4-12.7c1.4,0,2.6,0.1,3.8,0.2
		c1.1,0.1,2.1,0.3,2.9,0.6c1-1.5,2.3-2.2,3.9-2.2c2,0,3.2,1.3,3.7,3.9c0.5,2.3,0.7,5.1,0.7,8.5c0,1.2-0.3,2.2-0.9,3.1
		C231.5,523.4,230.4,524,229,524z"/>
	<path d="M256.5,574.3c-4.8,0-8.9-1.8-12.3-5.3c-3.8-3.9-5.9-9.2-6.1-15.8c-0.2-6.4,1.4-12.1,4.9-17c4-5.8,9.5-8.7,16.6-8.7
		c5.7,0,10,2.6,12.9,7.8c2.3,4.2,3.5,9.3,3.4,15.2c-0.1,6.3-1.7,11.7-4.9,16.2C267.3,571.8,262.5,574.3,256.5,574.3z M259,536.3
		c-4.2,0-7.4,2-9.8,6c-1.8,3.2-2.8,6.9-2.8,11c0,4.1,1.1,7.3,3.4,9.6c1.9,1.9,4.1,2.9,6.6,2.9c3,0,5.5-1.1,7.6-3.2
		c2.4-2.4,3.7-5.6,3.8-9.7C268.3,541.8,265.4,536.3,259,536.3z"/>
	<path d="M340.5,575.4c-2.3,0-3.7-1.2-4.1-3.7c-0.5-3.1-1-7.5-1.5-13.2l-1.4-13.2c-0.3-2-0.8-3.9-1.4-5.8c-1-2.6-2-3.8-3.2-3.8
		c-1.1,0-3,0.9-5.9,2.7c-2.7,1.6-4.5,3-5.4,4c0,2.7,0,5.3,0.2,8l1.3,11.4c0.5,4.5,0.8,8.2,0.8,11.1c0,1.3-0.4,2.3-1.2,3.1
		c-0.8,0.8-1.8,1.2-3,1.2c-1.2,0-2.2-0.4-3-1.2c-0.8-0.8-1.2-1.8-1.2-3.1c0-3.4-0.3-8.5-1-15.2c-0.7-6.7-1-11.8-1-15.2
		c0-3-0.4-5.4-1.3-7c-2,0.9-4,2.4-6.1,4.4l-5,5.6c-0.5,0.7-1.2,1.6-2.2,2.7c0,1.7-0.2,4.2-0.5,7.5c-0.3,3.3-0.5,5.8-0.5,7.4
		c0,0.9,0.1,2,0.4,3.6c0.3,1.5,0.4,2.6,0.4,3.3c0,1.2-0.4,2.1-1.3,2.9s-1.9,1.2-3,1.2c-3.2,0-4.8-3.7-4.8-11c0-1.7,0.2-4.2,0.5-7.6
		c0.3-3.4,0.5-5.9,0.5-7.6c0-1.5-0.1-3.8-0.4-6.8c-0.3-3-0.4-5.3-0.4-6.8c0-6.5,1.4-9.7,4.3-9.7c1.1,0,2.1,0.5,3,1.5
		c0.9,1,1.4,2,1.4,3.2c0,0.5-0.1,1.4-0.2,2.5c-0.1,1.1-0.2,2-0.2,2.6l0.1,4.5c1.5-3,3.7-5.8,6.5-8.3c2.9-2.5,5.3-3.7,7.3-3.7
		c4.5,0,7.5,2.2,9.2,6.7c1.6-2.1,3.4-3.6,5.6-4.7c2.2-1,4.6-1.6,7.4-1.6c4.7,0,8,2.6,9.7,7.7c0.3,1,0.9,5,1.7,12
		c0.8,4.9,1.8,13,3.1,24.4c0.1,1.1-0.3,2.1-1.2,2.9C342.8,575,341.8,575.4,340.5,575.4z"/>
	<path d="M364.3,552.5c0,1.7,0,4.3,0.1,7.7c0.1,3.4,0.1,5.9,0.1,7.7c0,1.3-0.4,2.3-1.2,3.1s-1.8,1.2-3,1.2c-1.2,0-2.2-0.4-3-1.2
		c-0.8-0.8-1.2-1.8-1.2-3.1c0-1.7,0-4.3-0.1-7.7c-0.1-3.4-0.1-5.9-0.1-7.7c0-2.7,0.1-6,0.4-10c0.3-4,0.4-7.3,0.4-10
		c0-1.3,0.4-2.3,1.2-3.1c0.8-0.8,1.8-1.2,3-1.2c1.2,0,2.2,0.4,3,1.2s1.2,1.8,1.2,3.1c0,2.7-0.1,6-0.4,10
		C364.4,546.5,364.3,549.8,364.3,552.5z M362.4,517.8c-1.4,0-2.5-0.5-3.5-1.4c-1-1-1.5-2.1-1.5-3.5c0-1.4,0.5-2.5,1.5-3.5
		c1-1,2.2-1.4,3.5-1.4c1.4,0,2.5,0.5,3.5,1.4c1,1,1.5,2.1,1.5,3.5c0,1.4-0.5,2.5-1.5,3.5S363.7,517.8,362.4,517.8z"/>
	<path d="M398,574.5c-5.8,0-10.7-1.8-14.6-5.3c-4.1-3.7-6.1-8.6-6.1-14.6c0-5.8,1.9-11.7,5.8-17.9c4.3-6.8,9.1-10.2,14.4-10.2
		c2.8,0,5.9,0.7,9.3,2c4.3,1.7,6.5,3.7,6.5,6.1c0,1.1-0.4,2-1.1,2.9c-0.7,0.8-1.6,1.3-2.6,1.3c-0.8,0-1.5-0.2-2.2-0.7
		c-0.6-0.5-1.2-1-1.8-1.5c-1.7-1.3-4.4-2-8.2-2c-2.9,0-5.8,2.6-8.6,7.8c-2.6,4.7-3.9,8.9-3.9,12.3c0,3.8,1.3,6.7,3.8,8.9
		c2.4,2,5.5,3,9.2,3c1.7,0,3.5-0.5,5.5-1.4l4.9-2.6c0.9-0.5,1.5-0.7,1.8-0.7c1.1,0,2,0.4,2.7,1.3c0.8,0.8,1.2,1.8,1.2,2.9
		c0,2.1-2.2,4.1-6.6,6C403.7,573.6,400.5,574.5,398,574.5z"/>
	<path d="M449.4,561.2c0-1.2,0.4-2.2,1.2-2.9c0.8-0.8,1.9-1.1,3.1-1.1c1.4,0,2.6,0.8,3.7,2.4c1.5,2.2,2.7,3.6,3.9,4.4
		c2.4,1.6,5.9,2.4,10.5,2.4c4.4,0,8.5-1,12.3-2.9c4.8-2.4,7.2-5.8,7.2-10.2c0-3.6-2-6.4-6.1-8.5c-3.4-1.8-7.7-2.8-12.7-2.9
		c-4.5-0.2-8.3-1.2-11.5-2.9c-4-2.3-6.1-5.6-6.1-9.9c0-5.1,2.9-9.7,8.6-13.9c5.5-4,11.2-5.9,17-5.9c2.8,0,5.9,0.5,9.3,1.4
		c4.6,1.2,6.9,2.8,6.9,4.7c0,2.5-1.3,3.8-3.8,3.8c-1.1,0-3.1-0.3-6-0.9c-2.8-0.6-5-0.9-6.6-0.9c-4.4,0.1-8.2,1.2-11.3,3.3
		c-3.2,2.2-4.8,4.8-4.8,8c0,2.4,2.1,4,6.3,5c1.6,0.4,4.6,0.7,9.1,1c6.5,0.5,11.6,2.5,15.3,6.1c3.4,3.3,5,7.3,5,12.1
		c0,6.8-3.1,12.2-9.4,16.2c-5.4,3.5-11.7,5.2-18.9,5.2c-5.2,0-10-1-14.3-3C452.2,568.8,449.5,565.5,449.4,561.2z"/>
	<path d="M543.5,574.6c-0.5,0-1.5-0.6-2.9-1.9c-1.3-1.2-2.2-2.2-2.9-3.1c-2.7,1.5-5.1,2.6-7.2,3.3c-2.1,0.8-3.8,1.1-5.2,1.1
		c-6.7,0-11.5-1.9-14.5-5.6c-2.9-3.5-4.3-8.9-4.3-16.2c0-6.9,2.4-12.8,7.1-17.7c4.7-4.9,10.4-7.3,16.9-7.3c2.5,0,5.2,0.6,8.3,1.9
		c3.9,1.6,5.8,3.5,5.8,5.8c0,0.8-0.3,1.5-0.9,2c-0.3,1.1-0.5,2.9-0.7,5.3c-0.2,2.5-0.2,5.6-0.3,9.5c0,3.5,0.2,6.3,0.7,8.4
		c0.3,1.3,1.2,3.8,2.7,7.5c0.2,0.5,0.5,1.3,1,2.3l0.3,0.7c0,1.1-0.4,2.1-1.2,2.8C545.5,574.3,544.5,574.6,543.5,574.6z M534.6,545
		c0-1.2,0.1-2.6,0.2-4c0.2-1.4,0.4-3,0.7-4.6c-1.1-0.5-2-0.9-2.7-1.2s-1.4-0.4-1.8-0.4c-4.4,0-8.2,1.8-11.4,5.4
		c-3.2,3.6-4.8,7.7-4.8,12.4c0,4.7,0.8,8.2,2.5,10.5c1.6,2.3,4.1,3.5,7.4,3.5c2.7,0,5-0.5,7-1.5c1-0.5,2.5-1.6,4.3-3.2
		C535.1,554.4,534.6,548.7,534.6,545z"/>
	<path d="M587.6,574.8c-2.4,0-3.8-1.3-4.1-4l-1.2-9.3c-0.4-3.3-0.6-6.4-0.6-9.3c0-0.8,0-2.1,0.1-4.1s0.1-3.3,0.1-4.1
		c0-6.1-1.1-9.2-3.4-9.2c-3.2,0-6.2,1.9-9.1,5.7c-2.6,3.4-4.7,7.8-6.1,13c-0.1,1.1-0.2,2.5-0.4,4.2c-0.2,1.4-0.3,2.8-0.3,4.1
		c0,0.9,0.1,2.1,0.3,3.8c0.2,1.7,0.3,3,0.3,3.8c0,1.3-0.4,2.3-1.2,3.1c-0.8,0.8-1.8,1.2-3,1.2c-1.3,0-2.3-0.4-3-1.2
		c-0.8-0.8-1.2-1.8-1.2-3.1c0-0.9-0.1-2.1-0.3-3.8c-0.2-1.7-0.3-3-0.3-3.8c0-2.9,0.2-7,0.6-12.2c0.4-5.2,0.6-9.2,0.6-12.2
		c0-0.9,0-2.3-0.1-4.1s-0.1-3.1-0.1-4.1c0-1.2,0.4-2.2,1.2-3c0.8-0.8,1.8-1.2,3-1.2c2.6,0,4.1,1.8,4.3,5.5l0.1,5
		c4.8-6.4,9.7-9.6,14.7-9.6c4.5,0,7.7,2,9.5,6c1.2,2.7,1.9,6.6,2,11.9v4.3l0,4c0,2.4,0.3,5.4,0.9,9.1s0.9,6.8,0.9,9.1
		c0,1.3-0.4,2.3-1.2,3C589.8,574.5,588.8,574.8,587.6,574.8z"/>
	<path d="M629.4,539c-1.6,0-2.7-0.5-3.3-1.6c-0.4-0.7-0.8-2.3-1.1-4.6c-2.1,0.5-5.4,1.5-9.8,3c-4.6,1.8-6.9,4.1-6.9,6.7
		c0.9,0.3,1.7,0.5,2.5,0.7c6.5,1.2,11.4,2.8,14.6,4.8c4.6,3,7,7.3,7,13c0,4.6-2,8.1-6,10.5c-3.3,1.9-7.5,2.9-12.6,2.9
		c-3.7,0-7.3-0.6-10.7-1.9c-4.4-1.6-6.6-3.8-6.6-6.7c0-1.1,0.4-2.1,1.3-3c0.9-0.9,1.9-1.3,3-1.3c0.9,0,2,0.7,3.4,2
		c0.7,0.7,2.2,1.2,4.6,1.6c1.9,0.3,3.5,0.5,4.8,0.5c2.4,0,4.5-0.3,6.3-0.9c2.6-0.8,4-2.1,4-3.9c0-3.9-2.7-6.5-8.1-7.8l-4.4-1
		c-3.8-0.8-6.5-1.8-8.1-2.9c-2.3-1.6-3.5-4-3.5-7.2c0-5.9,2.8-10.2,8.4-12.7c1.7-0.8,4.4-1.7,8.2-2.8c3.8-1.1,6.4-2,8.1-2.7
		c1.2-0.5,2.4-0.8,3.8-0.8c1.2,0,2.2,0.4,3,1.2s1.2,1.8,1.2,3.1c0,0.8,0.2,2,0.5,3.6c0.4,1.6,0.5,2.8,0.5,3.6c0,1.3-0.4,2.3-1.2,3.1
		C631.6,538.6,630.6,539,629.4,539z"/>
</g>
</svg>
